# xmcd CD database file
#
# Track frame offsets:
#	182
#	16375
#	28007
#	44050
#	59922
#	73547
#	99882
#	124785
#	136850
#	147977
#	158067
#	171677
#	211017
#
# Disc length: 2985 seconds
#
# Revision: 0
# Processed by: cddbd v1.4PL0 Copyright (c) Steve Scherf et al.
# Submitted via: CDex 1.40Release
#
DISCID=bf0ba70d
DTITLE=Brenda Lee - Legends
DYEAR=1994
DGENRE=Country
TTITLE0=Coming On Strong
TTITLE1=Silver Threads And Golden Needles
TTITLE2=Johnny One Time
TTITLE3=You're The One That I Want
TTITLE4=You Don't Have To Say You Love Me
TTITLE5=Medley:(Jambalaya, It It True?, My Whole World, Sweet Nothin's, End Of The World, All Alone Am I)
TTITLE6=Meldey:(Fool No.1, Too Many Rivers, Jambalaya)
TTITLE7=How Much Love
TTITLE8=That's All You Gotta Do
TTITLE9=I'm Sorry
TTITLE10=Mama Don't Dance
TTITLE11=Gospel Medley:(Good Ole Acapella(Soul To Soul), Old Landmarks, I'll Fly Away(Some Glad Morning), Op
TTITLE12=Medley:(When You're Smiling, You Ought tTo Be In Pictures, Put On A Happy Face, Smile, Baby Face)
EXTD=YEAR: 1994 ID3G: 2
EXTT0=
EXTT1=
EXTT2=
EXTT3=
EXTT4=
EXTT5=
EXTT6=
EXTT7=
EXTT8=
EXTT9=
EXTT10=
EXTT11=
EXTT12=
PLAYORDER=
